<svg width="300" height="300" viewBox="0 0 300 300" fill="none" xmlns="http://www.w3.org/2000/svg">
<path d="M82.2105 231C77.2026 231 72.9171 229.239 69.3539 225.717C65.7907 222.195 64.0061 217.956 64 213V87C64 82.05 65.7846 77.814 69.3539 74.292C72.9232 70.77 77.2087 69.006 82.2105 69H209.684C214.692 69 218.981 70.764 222.55 74.292C226.119 77.82 227.901 82.056 227.895 87H155.053C144.278 87 135.516 90.339 128.766 97.017C122.016 103.695 118.638 112.356 118.632 123V177C118.632 187.65 122.01 196.314 128.766 202.992C135.522 209.67 144.284 213.006 155.053 213H227.895C227.895 217.95 226.113 222.189 222.55 225.717C218.987 229.245 214.698 231.006 209.684 231H82.2105Z" fill="white"/>
<path fill-rule="evenodd" clip-rule="evenodd" d="M155.053 195C150.045 195 145.759 193.239 142.196 189.717C138.633 186.195 136.848 181.956 136.842 177V123C136.842 118.05 138.627 113.814 142.196 110.292C145.765 106.77 150.051 105.006 155.053 105H218.789C223.797 105 228.086 106.764 231.655 110.292C235.224 113.82 237.006 118.056 237 123V177C237 181.95 235.218 186.189 231.655 189.717C228.092 193.245 223.803 195.006 218.789 195H155.053ZM192.157 159.675C189.577 162.225 186.314 163.5 182.368 163.5C178.423 163.5 175.16 162.225 172.58 159.675C170 157.125 168.71 153.9 168.71 150C168.71 146.1 170 142.875 172.58 140.325C175.16 137.775 178.423 136.5 182.368 136.5C186.314 136.5 189.577 137.775 192.157 140.325C194.736 142.875 196.026 146.1 196.026 150C196.026 153.9 194.736 157.125 192.157 159.675Z" fill="white"/>
</svg>
