<svg width="400" height="400" viewBox="0 0 400 400" fill="none" xmlns="http://www.w3.org/2000/svg">
<path d="M131.677 249.806H145V314.323H131.613L131.1 304.968C129.221 308.28 126.681 310.946 123.478 312.968C120.275 314.989 116.496 316 112.141 316C107.443 316 103.024 315.118 98.8815 313.355C94.7393 311.548 91.0883 309.054 87.9283 305.871C84.811 302.688 82.377 299.032 80.6262 294.903C78.8754 290.731 78 286.258 78 281.484C78 276.882 78.854 272.559 80.5621 268.516C82.2702 264.43 84.6402 260.86 87.6721 257.806C90.704 254.753 94.2055 252.366 98.1769 250.645C102.191 248.882 106.482 248 111.052 248C115.706 248 119.806 249.075 123.35 251.226C126.937 253.333 129.905 256.043 132.253 259.355L131.677 249.806ZM111.82 303.032C115.578 303.032 118.866 302.108 121.685 300.258C124.503 298.366 126.681 295.828 128.218 292.645C129.798 289.462 130.588 285.935 130.588 282.065C130.588 278.151 129.798 274.602 128.218 271.419C126.638 268.237 124.439 265.72 121.62 263.871C118.845 261.978 115.578 261.032 111.82 261.032C108.105 261.032 104.71 261.978 101.636 263.871C98.5612 265.763 96.1272 268.301 94.3337 271.484C92.5402 274.667 91.6434 278.194 91.6434 282.065C91.6434 285.978 92.5615 289.527 94.3977 292.71C96.2766 295.849 98.732 298.366 101.764 300.258C104.838 302.108 108.191 303.032 111.82 303.032Z" fill="#6114E0"/>
<path d="M299.478 249.806H313V314.323H299.413L298.893 304.968C296.986 308.28 294.407 310.946 291.157 312.968C287.906 314.989 284.071 316 279.65 316C274.883 316 270.397 315.118 266.193 313.355C261.989 311.548 258.284 309.054 255.076 305.871C251.913 302.688 249.442 299.032 247.665 294.903C245.888 290.731 245 286.258 245 281.484C245 276.882 245.867 272.559 247.6 268.516C249.334 264.43 251.739 260.86 254.816 257.806C257.894 254.753 261.447 252.366 265.478 250.645C269.552 248.882 273.908 248 278.545 248C283.269 248 287.43 249.075 291.027 251.226C294.667 253.333 297.679 256.043 300.063 259.355L299.478 249.806ZM279.325 303.032C283.139 303.032 286.476 302.108 289.337 300.258C292.197 298.366 294.407 295.828 295.967 292.645C297.571 289.462 298.373 285.935 298.373 282.065C298.373 278.151 297.571 274.602 295.967 271.419C294.364 268.237 292.132 265.72 289.272 263.871C286.454 261.978 283.139 261.032 279.325 261.032C275.554 261.032 272.109 261.978 268.989 263.871C265.868 265.763 263.398 268.301 261.577 271.484C259.757 274.667 258.847 278.194 258.847 282.065C258.847 285.978 259.779 289.527 261.642 292.71C263.549 295.849 266.041 298.366 269.119 300.258C272.239 302.108 275.641 303.032 279.325 303.032Z" fill="#6114E0"/>
<path d="M184.241 335H173.073L155 282H166.006L178.738 319.206L191.362 282H202.692L215.316 319.206L227.994 282H239L220.981 335H209.705L196.973 297.529L184.241 335Z" fill="white"/>
<path d="M68.1789 314H85.7398L49.9675 266.493L86 224H68.3089L35.5285 262.764V224H22V314H35.5285V283.529L41.0569 276.907L68.1789 314Z" fill="white"/>
<path d="M377 273.745V314H363.596V277.019C363.596 274.152 362.887 271.541 361.469 269.187C360.094 266.833 358.225 264.971 355.862 263.601C353.542 262.189 350.921 261.482 348 261.482C345.164 261.482 342.565 262.189 340.202 263.601C337.839 264.971 335.949 266.833 334.531 269.187C333.113 271.541 332.404 274.152 332.404 277.019V314H319V249.798H332.404V256.603C334.639 253.949 337.388 251.852 340.653 250.311C343.919 248.77 347.441 248 351.222 248C355.991 248 360.33 249.156 364.24 251.467C368.15 253.778 371.243 256.881 373.52 260.776C375.84 264.671 377 268.994 377 273.745Z" fill="white"/>
<path d="M131.211 200C126.203 200 121.917 198.239 118.354 194.717C114.791 191.195 113.006 186.956 113 182V56C113 51.05 114.785 46.814 118.354 43.292C121.923 39.77 126.209 38.006 131.211 38H258.684C263.692 38 267.981 39.764 271.55 43.292C275.119 46.82 276.901 51.056 276.895 56H204.053C193.278 56 184.516 59.339 177.766 66.017C171.016 72.695 167.638 81.356 167.632 92V146C167.632 156.65 171.01 165.314 177.766 171.992C184.522 178.67 193.284 182.006 204.053 182H276.895C276.895 186.95 275.113 191.189 271.55 194.717C267.987 198.245 263.698 200.006 258.684 200H131.211Z" fill="white"/>
<path fill-rule="evenodd" clip-rule="evenodd" d="M204.053 164C199.045 164 194.759 162.239 191.196 158.717C187.633 155.195 185.848 150.956 185.842 146V92C185.842 87.05 187.627 82.814 191.196 79.292C194.765 75.77 199.051 74.006 204.053 74H267.789C272.797 74 277.086 75.764 280.655 79.292C284.224 82.82 286.006 87.056 286 92V146C286 150.95 284.218 155.189 280.655 158.717C277.092 162.245 272.803 164.006 267.789 164H204.053ZM241.157 128.675C238.577 131.225 235.314 132.5 231.368 132.5C227.423 132.5 224.16 131.225 221.58 128.675C219 126.125 217.71 122.9 217.71 119C217.71 115.1 219 111.875 221.58 109.325C224.16 106.775 227.423 105.5 231.368 105.5C235.314 105.5 238.577 106.775 241.157 109.325C243.736 111.875 245.026 115.1 245.026 119C245.026 122.9 243.736 126.125 241.157 128.675Z" fill="#6114DF"/>
</svg>
