<svg width="400" height="154" viewBox="0 0 400 154" fill="none" xmlns="http://www.w3.org/2000/svg">
<path d="M137.677 56.8065H151V121.323H137.613L137.1 111.968C135.221 115.28 132.681 117.946 129.478 119.968C126.275 121.989 122.496 123 118.141 123C113.443 123 109.024 122.118 104.881 120.355C100.739 118.548 97.0883 116.054 93.9283 112.871C90.811 109.688 88.377 106.032 86.6262 101.903C84.8754 97.7312 84 93.2581 84 88.4839C84 83.8817 84.854 79.5591 86.5621 75.5161C88.2702 71.4301 90.6402 67.8602 93.6721 64.8064C96.704 61.7527 100.206 59.3656 104.177 57.6452C108.191 55.8817 112.482 55 117.052 55C121.706 55 125.806 56.0753 129.35 58.2258C132.937 60.3333 135.905 63.043 138.253 66.3548L137.677 56.8065ZM117.82 110.032C121.578 110.032 124.866 109.108 127.685 107.258C130.503 105.366 132.681 102.828 134.218 99.6452C135.798 96.4624 136.588 92.9355 136.588 89.0645C136.588 85.1505 135.798 81.6021 134.218 78.4193C132.638 75.2366 130.439 72.7204 127.62 70.871C124.845 68.9785 121.578 68.0323 117.82 68.0323C114.105 68.0323 110.71 68.9785 107.636 70.871C104.561 72.7634 102.127 75.3011 100.334 78.4839C98.5402 81.6667 97.6434 85.1935 97.6434 89.0645C97.6434 92.9785 98.5615 96.5269 100.398 99.7097C102.277 102.849 104.732 105.366 107.764 107.258C110.838 109.108 114.191 110.032 117.82 110.032Z" fill="#6114E0"/>
<path d="M293.478 56.8065H307V121.323H293.413L292.893 111.968C290.986 115.28 288.407 117.946 285.157 119.968C281.906 121.989 278.071 123 273.65 123C268.883 123 264.397 122.118 260.193 120.355C255.989 118.548 252.284 116.054 249.076 112.871C245.913 109.688 243.442 106.032 241.665 101.903C239.888 97.7312 239 93.2581 239 88.4839C239 83.8817 239.867 79.5591 241.6 75.5161C243.334 71.4301 245.739 67.8602 248.816 64.8064C251.894 61.7527 255.447 59.3656 259.478 57.6452C263.552 55.8817 267.908 55 272.545 55C277.269 55 281.43 56.0753 285.027 58.2258C288.667 60.3333 291.679 63.043 294.063 66.3548L293.478 56.8065ZM273.325 110.032C277.139 110.032 280.476 109.108 283.337 107.258C286.197 105.366 288.407 102.828 289.967 99.6452C291.571 96.4624 292.373 92.9355 292.373 89.0645C292.373 85.1505 291.571 81.6021 289.967 78.4193C288.364 75.2366 286.132 72.7204 283.272 70.871C280.454 68.9785 277.139 68.0323 273.325 68.0323C269.554 68.0323 266.109 68.9785 262.989 70.871C259.868 72.7634 257.398 75.3011 255.577 78.4839C253.757 81.6667 252.847 85.1935 252.847 89.0645C252.847 92.9785 253.779 96.5269 255.642 99.7097C257.549 102.849 260.041 105.366 263.119 107.258C266.239 109.108 269.641 110.032 273.325 110.032Z" fill="#6114E0"/>
<path d="M184.241 121H173.073L155 68H166.006L178.738 105.206L191.362 68H202.692L215.316 105.206L227.994 68H239L220.981 121H209.705L196.973 83.529L184.241 121Z" fill="white"/>
<path d="M74.1789 121H91.7398L55.9675 73.4929L92 31H74.3089L41.5285 69.7643V31H28V121H41.5285V90.5286L47.0569 83.9071L74.1789 121Z" fill="white"/>
<path d="M371 80.7451V121H357.596V84.0195C357.596 81.1518 356.887 78.5409 355.469 76.1868C354.094 73.8327 352.225 71.9708 349.862 70.6012C347.542 69.1887 344.921 68.4825 342 68.4825C339.164 68.4825 336.565 69.1887 334.202 70.6012C331.839 71.9708 329.949 73.8327 328.531 76.1868C327.113 78.5409 326.404 81.1518 326.404 84.0195V121H313V56.7977H326.404V63.6031C328.639 60.9494 331.388 58.8521 334.653 57.3113C337.919 55.7704 341.441 55 345.222 55C349.991 55 354.33 56.1556 358.24 58.4669C362.15 60.7782 365.243 63.8813 367.52 67.7763C369.84 71.6712 371 75.9942 371 80.7451Z" fill="white"/>
</svg>
